# xmcd
#
# Track frame offsets:
# 150
# 16651
# 33920
# 49686
# 64758
# 75757
# 89030
# 100625
# 113915
# 127654
# 140086
# 151559
# 163928
# 175773
# 185480
# 196997
# 207814
# 215212
#
# Disc length: 2929 seconds
#
#
# Revision: 0
# Processed by: cddbd v1.5.2PL0 Copyright (c) Steve Scherf et al.
# Submitted via: FreeRIP 2.40 
#
DISCID=e60b6f12
DTITLE=Mais Xarope - Ré no Minhocão
DYEAR=2010
DGENRE=Sertanejo
TTITLE0=MAIS XAROPE ( cd ré no minhocão ) - RÉ NO MINHOCÃO
TTITLE1=MAIS XAROPE ( cd ré no minhocão ) - CARTÃO VERMELHO
TTITLE2=MAIS XAROPE ( cd ré no minhocão ) - AI DI NÓIS SI NÃO REZA
TTITLE3=MAIS XAROPE ( cd ré no minhocão ) - REI DA ALEGRIA
TTITLE4=MAIS XAROPE ( cd ré no minhocão ) - MEU GALINHEIRO
TTITLE5=MAIS XAROPE ( cd ré no minhocão ) - TÔ NADANDO NO DINHEIRO
TTITLE6=MAIS XAROPE ( cd ré no minhocão ) - COBERTÔ DE ORELHA
TTITLE7=MAIS XAROPE ( cd ré no minhocão ) - DEIXA MEU COTÓ CAÇA
TTITLE8=MAIS XAROPE ( cd ré no minhocão ) - DEIXA O VÉIO NAMORÁ
TTITLE9=MAIS XAROPE ( cd ré no minhocão ) - MEU SÍTIO
TTITLE10=MAIS XAROPE ( cd ré no minhocão ) - DONA BARATINHA
TTITLE11=MAIS XAROPE ( cd ré no minhocão ) - BEBI,BEBI,BEBI
TTITLE12=MAIS XAROPE ( cd ré no minhocão ) - COROCOCO
TTITLE13=MAIS XAROPE ( cd ré no minhocão ) - TO QUEBRANDO O GALHO
TTITLE14=MAIS XAROPE ( cd ré no minhocão ) - VIDA DE ROCEIRO
TTITLE15=MAIS XAROPE ( cd ré no minhocão ) - AVE FUXIQUEIRA
TTITLE16=MAIS XAROPE ( cd ré no minhocão ) - POESIA
TTITLE17=MAIS XAROPE ( cd ré no minhocão ) - OVO CHOCO
EXTD=
EXTT0=
EXTT1=
EXTT2=
EXTT3=
EXTT4=
EXTT5=
EXTT6=
EXTT7=
EXTT8=
EXTT9=
EXTT10=
EXTT11=
EXTT12=
EXTT13=
EXTT14=
EXTT15=
EXTT16=
EXTT17=
PLAYORDER=
